<svg width="24" height="24" viewBox="0 0 24 24" fill="none" xmlns="http://www.w3.org/2000/svg">
<path d="M12.7071 3.29289L15.7071 6.29289C16.0976 6.68342 16.0976 7.31658 15.7071 7.70711C15.3166 8.09763 14.6834 8.09763 14.2929 7.70711L13 6.41421V16C13 16.5523 12.5523 17 12 17C11.4477 17 11 16.5523 11 16V6.41421L9.70711 7.70711C9.31658 8.09763 8.68342 8.09763 8.29289 7.70711C7.90237 7.31658 7.90237 6.68342 8.29289 6.29289L11.2929 3.29289C11.3844 3.20136 11.4893 3.13129 11.6012 3.08266C11.6065 3.08035 11.6119 3.07809 11.6172 3.07588C11.7351 3.02699 11.8644 3 12 3C12.1356 3 12.2649 3.02699 12.3828 3.07588C12.5007 3.12468 12.6112 3.19702 12.7071 3.29289Z" fill="black"/>
<path d="M5 12.5C5 11.9477 4.55228 11.5 4 11.5C3.44772 11.5 3 11.9477 3 12.5V19C3 20.6569 4.34315 22 6 22H18C19.6569 22 21 20.6569 21 19V12.5C21 11.9477 20.5523 11.5 20 11.5C19.4477 11.5 19 11.9477 19 12.5V19C19 19.5523 18.5523 20 18 20H6C5.44771 20 5 19.5523 5 19V12.5Z" fill="black"/>
</svg>
