<svg width="24" height="24" viewBox="0 0 24 24" fill="none" xmlns="http://www.w3.org/2000/svg">
<path d="M1 2.625V8.4375C1 9.02302 1.47698 9.5 2.0625 9.5H3.9375C4.52302 9.5 5 9.02302 5 8.4375V5H8.4375C9.02302 5 9.5 4.52302 9.5 3.9375V2.0625C9.5 1.47698 9.02302 1 8.4375 1H2.625C1.72542 1 1 1.72542 1 2.625ZM14.5 2.0625V3.9375C14.5 4.52302 14.977 5 15.5625 5H19V8.4375C19 9.02302 19.477 9.5 20.0625 9.5H21.9375C22.523 9.5 23 9.02302 23 8.4375V2.625C23 1.72542 22.2746 1 21.375 1H15.5625C14.977 1 14.5 1.47698 14.5 2.0625ZM21.9375 14.5H20.0625C19.477 14.5 19 14.977 19 15.5625V19H15.5625C14.977 19 14.5 19.477 14.5 20.0625V21.9375C14.5 22.523 14.977 23 15.5625 23H21.375C22.2746 23 23 22.2746 23 21.375V15.5625C23 14.977 22.523 14.5 21.9375 14.5ZM9.5 21.9375V20.0625C9.5 19.477 9.02302 19 8.4375 19H5V15.5625C5 14.977 4.52302 14.5 3.9375 14.5H2.0625C1.47698 14.5 1 14.977 1 15.5625V21.375C1 22.2746 1.72542 23 2.625 23H8.4375C9.02302 23 9.5 22.523 9.5 21.9375Z" fill="white" stroke="#212121"/>
</svg>
