<svg width="24" height="24" viewBox="0 0 24 24" fill="none" xmlns="http://www.w3.org/2000/svg">
<path fill-rule="evenodd" clip-rule="evenodd" d="M13 3C13 2.44772 12.5523 2 12 2C11.4477 2 11 2.44772 11 3V6H6C3.79086 6 2 7.79086 2 10V14C2 16.2091 3.79086 18 6 18H11V21C11 21.5523 11.4477 22 12 22C12.5523 22 13 21.5523 13 21L13 3ZM11 8H6C4.89543 8 4 8.89543 4 10V14C4 15.1046 4.89543 16 6 16H11L11 8Z" fill="black"/>
<path d="M18 16H15V18H18C20.2091 18 22 16.2091 22 14V10C22 7.79086 20.2091 6 18 6H15V8H18C19.1046 8 20 8.89543 20 10V14C20 15.1046 19.1046 16 18 16Z" fill="black"/>
</svg>
